<?xml version="1.0" standalone="no"?>
<!DOCTYPE svg PUBLIC "-//W3C//DTD SVG 20010904//EN"
 "http://www.w3.org/TR/2001/REC-SVG-20010904/DTD/svg10.dtd">
<svg version="1.0" xmlns="http://www.w3.org/2000/svg"
 width="1600.000000pt" height="1600.000000pt" viewBox="0 0 1600.000000 1600.000000"
 preserveAspectRatio="xMidYMid meet">
<metadata>
Created by potrace 1.11, written by Peter Selinger 2001-2013
</metadata>
<g transform="translate(0.000000,1600.000000) scale(0.100000,-0.100000)"
fill="#000000" stroke="none">
<path d="M0 8000 l0 -8000 8000 0 8000 0 0 8000 0 8000 -8000 0 -8000 0 0
-8000z m5853 7466 c19 -8 311 -295 737 -727 387 -393 871 -883 1075 -1089 203
-206 537 -544 740 -750 204 -206 539 -546 745 -755 206 -209 542 -549 745
-755 204 -206 539 -546 745 -755 207 -209 544 -551 750 -760 206 -209 540
-546 741 -750 202 -203 375 -386 385 -405 36 -72 15 -166 -48 -213 -18 -13
-890 -548 -1936 -1187 -1838 -1123 -1904 -1164 -1899 -1189 3 -14 401 -1234
883 -2711 646 -1974 878 -2697 878 -2730 -1 -122 -128 -205 -236 -153 -24 12
-1185 1182 -3343 3368 -2662 2698 -3308 3358 -3321 3392 -25 63 -12 125 34
173 23 24 755 476 1942 1201 1048 639 1909 1166 1914 1170 5 4 -386 1216 -873
2709 -485 1485 -884 2714 -887 2730 -10 47 5 98 39 137 53 60 122 78 190 49z"/>
</g>
</svg>
