<?xml version="1.0" encoding="UTF-8"?>
<svg width="22px" height="22px" viewBox="0 0 22 22" version="1.1" xmlns="http://www.w3.org/2000/svg" xmlns:xlink="http://www.w3.org/1999/xlink">
    <!-- Generator: Sketch 48.2 (47327) - http://www.bohemiancoding.com/sketch -->
    <title>brand</title>
    <desc>Created with Sketch.</desc>
    <defs></defs>
    <g id="Desktop-Copy-5" stroke="none" stroke-width="1" fill="none" fill-rule="evenodd" transform="translate(-796.000000, -922.000000)">
        <g id="brand" transform="translate(796.000000, 922.000000)" fill="#B6BAC3" fill-rule="nonzero">
            <path d="M11,0 C4.9225,0 0,4.92525 0,11 C0,15.860625 3.1515,19.982875 7.52125,21.43625 C8.07125,21.539375 8.273375,21.19975 8.273375,20.906875 C8.273375,20.645625 8.26375,19.954 8.259625,19.036875 C5.198875,19.701 4.554,17.5615 4.554,17.5615 C4.0535,16.291 3.33025,15.95275 3.33025,15.95275 C2.333375,15.27075 3.40725,15.2845 3.40725,15.2845 C4.511375,15.3615 5.091625,16.4175 5.091625,16.4175 C6.073375,18.099125 7.667,17.61375 8.295375,17.331875 C8.394375,16.621 8.677625,16.135625 8.9925,15.860625 C6.549125,15.585625 3.982,14.639625 3.982,10.42525 C3.982,9.224875 4.40825,8.243125 5.113625,7.473125 C4.989875,7.195375 4.618625,6.0775 5.209875,4.56225 C5.209875,4.56225 6.131125,4.266625 8.234875,5.68975 C9.114875,5.445 10.049875,5.324 10.984875,5.3185 C11.919875,5.324 12.854875,5.445 13.734875,5.68975 C15.824875,4.266625 16.746125,4.56225 16.746125,4.56225 C17.337375,6.0775 16.966125,7.195375 16.856125,7.473125 C17.557375,8.243125 17.983625,9.224875 17.983625,10.42525 C17.983625,14.650625 15.412375,15.5815 12.964875,15.852375 C13.349875,16.182375 13.707375,16.856125 13.707375,17.887375 C13.707375,19.358625 13.693625,20.541125 13.693625,20.898625 C13.693625,21.187375 13.886125,21.531125 14.449875,21.421125 C18.85125,19.97875 22,15.85375 22,11 C22,4.92525 17.07475,0 11,0 Z" id="Shape"></path>
        </g>
    </g>
</svg>